<svg viewBox="0 0 30 30" xmlns="http://www.w3.org/2000/svg" width="40" height="40" id="svg-a2urq1f8hua"><defs fill="rgb(255,255,255)"><style fill="rgb(255,255,255)">#svg-a2urq1f8hua .cls-1{fill:none;}</style></defs><title fill="rgb(255,255,255)"></title><g data-name="Layer 2" id="Layer_2" fill="rgb(255,255,255)"><path d="M16,29A13,13,0,1,1,29,16,13,13,0,0,1,16,29ZM16,5A11,11,0,1,0,27,16,11,11,0,0,0,16,5Z" fill="rgb(255,255,255)"></path><path d="M16,23a1,1,0,0,1-1-1V10a1,1,0,0,1,2,0V22A1,1,0,0,1,16,23Z" fill="rgb(255,255,255)"></path><path d="M22,17H10a1,1,0,0,1,0-2H22a1,1,0,0,1,0,2Z" fill="rgb(255,255,255)"></path></g><g id="frame" fill="rgb(255,255,255)"><rect class="cls-1" height="32" width="32" fill="rgb(255,255,255)"></rect></g></svg>