<svg width="583px" height="583px" viewBox="0 0 583 583" xmlns="http://www.w3.org/2000/svg">
  <path
    fill="rgb(255,202,40)"
    stroke="#e5e5e5"
    stroke-width="0"
    d="M 23.5 51.8 C 26.2 42.9 17.6 26.4 26.9 16.3 C 28.8 14.3 31.7 12.6 34.5 12.9 C 51.2 14.5 43.2 41.8 51.7 49.9 C 61.2 59.0 68.4 53.6 76.2 57.5 C 84.3 61.5 92.7 70.4 88.5 80.1 C 86.2 85.4 82.4 89.0 77.1 91.0 C 59.7 97.1 58.8 83.0 48.0 83.4 C 36.1 83.8 23.9 97.5 13.9 84.8 C 10.2 80.2 9.5 75.3 10.9 69.6 C 12.2 64.2 21.4 58.8 23.5 51.8"
    transform="translate(-20.1325645077496 -36.30126309579718) scale(6.242064247986839, 6.220223390006652)"
  />
</svg>